<?xml version="1.0" encoding="UTF-8" standalone="no"?>
<svg
   xmlns:dc="http://purl.org/dc/elements/1.1/"
   xmlns:cc="http://creativecommons.org/ns#"
   xmlns:rdf="http://www.w3.org/1999/02/22-rdf-syntax-ns#"
   xmlns:svg="http://www.w3.org/2000/svg"
   xmlns="http://www.w3.org/2000/svg"
   xmlns:xlink="http://www.w3.org/1999/xlink"
   xmlns:sodipodi="http://sodipodi.sourceforge.net/DTD/sodipodi-0.dtd"
   xmlns:inkscape="http://www.inkscape.org/namespaces/inkscape"
   version="1.1"
   x="0"
   y="0"
   width="1179.6786"
   height="830.84229"
   viewBox="0 0 1179.6786 830.84228"
   id="svg79"
   sodipodi:docname="ketchup.svg"
   inkscape:version="1.0.1 (3bc2e813f5, 2020-09-07)">
  <metadata
     id="metadata85">
    <rdf:RDF>
      <cc:Work
         rdf:about="">
        <dc:format>image/svg+xml</dc:format>
        <dc:type
           rdf:resource="http://purl.org/dc/dcmitype/StillImage" />
        <dc:title></dc:title>
      </cc:Work>
    </rdf:RDF>
  </metadata>
  <defs
     id="defs83"><linearGradient
   inkscape:collect="always"
   id="linearGradient3091">
  <stop
     style="stop-color:#000000;stop-opacity:1;"
     offset="0"
     id="stop3087" />
  <stop
     style="stop-color:#000000;stop-opacity:0;"
     offset="1"
     id="stop3089" />
</linearGradient>
<linearGradient
   id="linearGradient1321"
   gradientUnits="userSpaceOnUse"
   x1="-10.1017"
   y1="5.8362002"
   x2="45.731499"
   y2="61.669399"
   gradientTransform="matrix(1,0,0,-1,0,61)">
  <stop
     offset="0.1075"
     style="stop-color:#0095d5;stop-opacity:1"
     id="stop1309" />
  <stop
     offset="0.2138"
     style="stop-color:#806ee3;stop-opacity:1"
     id="stop1311" />
  <stop
     offset="0.4254"
     style="stop-color:#E1725C"
     id="stop1313" />
  <stop
     offset="0.6048"
     style="stop-color:#EE7E2F"
     id="stop1315" />
  <stop
     offset="0.743"
     style="stop-color:#d0609a;stop-opacity:1"
     id="stop1317" />
  <stop
     offset="0.8232"
     style="stop-color:#0095d5;stop-opacity:1"
     id="stop1319" />
</linearGradient>
<linearGradient
   id="linearGradient1054"
   gradientUnits="userSpaceOnUse"
   x1="4.2091999"
   y1="48.940899"
   x2="20.673401"
   y2="65.404999"
   gradientTransform="matrix(1,0,0,-1,0,61)">
  <stop
     offset="0.1183"
     style="stop-color:#0095D5"
     id="stop1300" />
  <stop
     offset="0.4178"
     style="stop-color:#3C83DC"
     id="stop1302" />
  <stop
     offset="0.6962"
     style="stop-color:#6D74E1"
     id="stop1304" />
  <stop
     offset="0.8333"
     style="stop-color:#806EE3"
     id="stop1306" />
</linearGradient>
<linearGradient
   id="XMLID_3_"
   gradientUnits="userSpaceOnUse"
   x1="15.9594"
   y1="-13.0143"
   x2="44.306801"
   y2="15.3332"
   gradientTransform="matrix(1,0,0,-1,0,61)">
  <stop
     offset="9.677000e-02"
     style="stop-color:#0095D5"
     id="stop920" />
  <stop
     offset="0.3007"
     style="stop-color:#238AD9"
     id="stop922" />
  <stop
     offset="0.6211"
     style="stop-color:#557BDE"
     id="stop924" />
  <stop
     offset="0.8643"
     style="stop-color:#7472E2"
     id="stop926" />
  <stop
     offset="1"
     style="stop-color:#806EE3"
     id="stop928" />
</linearGradient>
<linearGradient
   id="SVGID_1_"
   gradientUnits="userSpaceOnUse"
   x1="4.2091999"
   y1="48.940899"
   x2="20.673401"
   y2="65.404999"
   gradientTransform="matrix(1,0,0,-1,0,61)">
  <stop
     offset="0.1183"
     style="stop-color:#0095D5"
     id="stop932" />
  <stop
     offset="0.4178"
     style="stop-color:#3C83DC"
     id="stop934" />
  <stop
     offset="0.6962"
     style="stop-color:#6D74E1"
     id="stop936" />
  <stop
     offset="0.8333"
     style="stop-color:#806EE3"
     id="stop938" />
</linearGradient>
<linearGradient
   id="SVGID_2_"
   gradientUnits="userSpaceOnUse"
   x1="-10.1017"
   y1="5.8362002"
   x2="45.731499"
   y2="61.669399"
   gradientTransform="matrix(1,0,0,-1,0,61)">
  <stop
     offset="0.1075"
     style="stop-color:#C757BC"
     id="stop943" />
  <stop
     offset="0.2138"
     style="stop-color:#D0609A"
     id="stop945" />
  <stop
     offset="0.4254"
     style="stop-color:#E1725C"
     id="stop947" />
  <stop
     offset="0.6048"
     style="stop-color:#EE7E2F"
     id="stop949" />
  <stop
     offset="0.743"
     style="stop-color:#F58613"
     id="stop951" />
  <stop
     offset="0.8232"
     style="stop-color:#F88909"
     id="stop953" />
</linearGradient>
<linearGradient
   id="linearGradient1042"
   gradientUnits="userSpaceOnUse"
   x1="15.9594"
   y1="-13.0143"
   x2="44.306801"
   y2="15.3332"
   gradientTransform="matrix(1,0,0,-1,0,61)">
  <stop
     offset="9.677000e-02"
     style="stop-color:#0095D5"
     id="stop1032" />
  <stop
     offset="0.3007"
     style="stop-color:#238AD9"
     id="stop1034" />
  <stop
     offset="0.6211"
     style="stop-color:#557BDE"
     id="stop1036" />
  <stop
     offset="0.8643"
     style="stop-color:#7472E2"
     id="stop1038" />
  <stop
     offset="1"
     style="stop-color:#806EE3"
     id="stop1040" />
</linearGradient>
<linearGradient
   id="linearGradient1054-6"
   gradientUnits="userSpaceOnUse"
   x1="4.2091999"
   y1="48.940899"
   x2="20.673401"
   y2="65.404999"
   gradientTransform="matrix(1,0,0,-1,0,61)">
  <stop
     offset="0.1183"
     style="stop-color:#0095D5"
     id="stop1046" />
  <stop
     offset="0.4178"
     style="stop-color:#3C83DC"
     id="stop1048" />
  <stop
     offset="0.6962"
     style="stop-color:#6D74E1"
     id="stop1050" />
  <stop
     offset="0.8333"
     style="stop-color:#806EE3"
     id="stop1052" />
</linearGradient>
<linearGradient
   id="linearGradient1069"
   gradientUnits="userSpaceOnUse"
   x1="-10.1017"
   y1="5.8362002"
   x2="45.731499"
   y2="61.669399"
   gradientTransform="matrix(1,0,0,-1,0,61)">
  <stop
     offset="0.1075"
     style="stop-color:#C757BC"
     id="stop1057" />
  <stop
     offset="0.2138"
     style="stop-color:#D0609A"
     id="stop1059" />
  <stop
     offset="0.4254"
     style="stop-color:#E1725C"
     id="stop1061" />
  <stop
     offset="0.6048"
     style="stop-color:#EE7E2F"
     id="stop1063" />
  <stop
     offset="0.743"
     style="stop-color:#F58613"
     id="stop1065" />
  <stop
     offset="0.8232"
     style="stop-color:#F88909"
     id="stop1067" />
</linearGradient>
<linearGradient
   inkscape:collect="always"
   xlink:href="#SVGID_1_"
   id="linearGradient1270"
   gradientUnits="userSpaceOnUse"
   gradientTransform="matrix(1,0,0,-1,0,61)"
   x1="-549.88281"
   y1="-595.34375"
   x2="-80.832527"
   y2="-682.97345" />
<linearGradient
   inkscape:collect="always"
   xlink:href="#linearGradient1321"
   id="linearGradient1270-9"
   gradientUnits="userSpaceOnUse"
   gradientTransform="matrix(1,0,0,-1,0,61.000025)"
   x1="-549.88281"
   y1="-595.34375"
   x2="-80.832527"
   y2="-682.97345" />
<style
   type="text/css"
   id="style6">
   
    .str3 {stroke:#A1C2E6;stroke-width:0.0762}
    .str2 {stroke:#A1C2E6;stroke-width:0.5}
    .str4 {stroke:#998476;stroke-width:0.0762}
    .str1 {stroke:#E6B073;stroke-width:0.0762}
    .str0 {stroke:#D1A068;stroke-width:0.25}
    .str5 {stroke:#5C4F47;stroke-width:0.5}
    .str6 {stroke:#998476;stroke-width:0.5}
    .str7 {stroke:#543E1D;stroke-width:3}
    .fil4 {fill:none}
    .fil1 {fill:#B4B7BA}
    .fil3 {fill:#CCE5FF}
    .fil6 {fill:#F2AD79}
    .fil2 {fill:#FFC68C}
    .fil5 {fill:#FFCC99}
    .fil0 {fill:#FFFADE}
    .fil7 {fill:#543E1D;fill-rule:nonzero}
   
  </style>
<linearGradient
   inkscape:collect="always"
   xlink:href="#linearGradient1321"
   id="linearGradient1270-9-1"
   gradientUnits="userSpaceOnUse"
   gradientTransform="matrix(1,0,0,-1,553.38477,-583.16602)"
   x1="-549.88281"
   y1="-595.34375"
   x2="-80.832527"
   y2="-682.97345" />
<linearGradient
   inkscape:collect="always"
   xlink:href="#linearGradient3091"
   id="linearGradient3093"
   x1="1354.5284"
   y1="648.51355"
   x2="1462.6467"
   y2="724.1701"
   gradientUnits="userSpaceOnUse" />
<linearGradient
   inkscape:collect="always"
   xlink:href="#linearGradient1321"
   id="linearGradient3097"
   gradientUnits="userSpaceOnUse"
   gradientTransform="matrix(1,0,0,-1,0,61.000025)"
   x1="-549.88281"
   y1="-595.34375"
   x2="-80.832527"
   y2="-682.97345" />
<linearGradient
   inkscape:collect="always"
   xlink:href="#linearGradient1321"
   id="linearGradient3099"
   gradientUnits="userSpaceOnUse"
   gradientTransform="matrix(1,0,0,-1,1188.1595,373.50025)"
   x1="163.1548"
   y1="-270.98398"
   x2="284.65546"
   y2="-363.27753" />

  
  
 <linearGradient
   inkscape:collect="always"
   xlink:href="#linearGradient1321"
   id="linearGradient3122"
   gradientUnits="userSpaceOnUse"
   gradientTransform="matrix(1,0,0,-1,0,61.000025)"
   x1="-549.88281"
   y1="-595.34375"
   x2="-80.832527"
   y2="-682.97345" />
<linearGradient
   inkscape:collect="always"
   xlink:href="#linearGradient3091"
   id="linearGradient3124"
   gradientUnits="userSpaceOnUse"
   x1="1354.5284"
   y1="648.51355"
   x2="1462.6467"
   y2="724.1701" />
</defs>
  <sodipodi:namedview
     pagecolor="#ffffff"
     bordercolor="#666666"
     borderopacity="1"
     objecttolerance="10"
     gridtolerance="10"
     guidetolerance="10"
     inkscape:pageopacity="0"
     inkscape:pageshadow="2"
     inkscape:window-width="2560"
     inkscape:window-height="1413"
     id="namedview81"
     showgrid="false"
     inkscape:zoom="0.75038491"
     inkscape:cx="926.81945"
     inkscape:cy="280.11367"
     inkscape:window-x="0"
     inkscape:window-y="0"
     inkscape:window-maximized="1"
     inkscape:current-layer="Layer_1"
     inkscape:document-rotation="0"
     fit-margin-top="0"
     fit-margin-left="0"
     fit-margin-right="0"
     fit-margin-bottom="0" />
  <g
     id="Layer_1"
     style="display:inline"
     transform="translate(628.17489,-82.206434)">
    <path
       d="m -36.534955,750.33522 -64.411875,-61.85313 44.20629,-46.03502 64.411877,61.85312 z"
       fill="#a3333b"
       id="path2"
       style="stroke-width:0.957489" />
    <path
       d="m 535.70064,252.2546 c 18.88862,18.13826 21.12347,47.48555 5.19931,68.264 l -0.3765,0.46812 -171.5263,201.94564 -0.25135,0.26175 c -45.46702,47.3479 -112.07115,65.91846 -175.24076,49.29311 L 27.202059,717.26596 c -13.571175,11.84474 -33.625622,11.36403 -46.637006,-1.13048 l -48.033002,-46.1249 C -80.479334,657.51607 -81.77212,637.49757 -70.475641,623.44592 L 67.43688,451.4271 C 48.264597,388.98157 64.121572,321.67976 109.58858,274.33186 l 0.25135,-0.26175 195.05216,-179.769833 0.23316,-0.190273 c 20.11419,-16.754883 49.52793,-15.710805 68.41653,2.427456 L 535.70064,252.2546"
       fill="#a3333b"
       id="path4"
       style="stroke-width:0.957489" />
    <path
       d="M 80.823384,453.86118 -61.14917,630.94434 c -7.331922,9.12129 -6.471795,22.32592 1.971102,30.43343 l 48.033003,46.12489 c 8.442896,8.1075 21.671528,8.43197 30.488295,0.73653 l 171.18601,-149.0302 c 58.42689,17.67562 124.42047,2.72683 169.58374,-44.30476 L 531.3998,313.23838 c 12.20591,-15.92489 10.47957,-38.45712 -3.98903,-52.35097 L 365.2519,105.17028 C 350.7833,91.276437 328.19961,90.46437 312.78231,103.30542 L 118.2214,282.62174 C 73.058132,329.65334 60.795223,396.19835 80.823384,453.86118"
       fill="#d03f44"
       id="path6"
       style="stroke-width:0.957489" />
    <path
       d="m 428.51499,340.10833 -93.93453,119.6967 C 297.72187,496.49497 233.01651,492.5736 189.34965,450.64138 145.68347,408.70984 139.1439,344.21647 174.31046,305.90172 L 290.63534,205.64544 c 77.4233,-61.73505 -0.49568,0.39219 79.94654,-64.48671 0,0 -1.10426,14.23777 53.15945,66.82207 57.32852,55.55425 67.49939,52.44359 67.49939,52.44359 0,0 -58.95301,74.87735 -62.72573,79.68394"
       fill="#f0d28f"
       id="path8"
       sodipodi:nodetypes="ccscccscc"
       style="stroke-width:0.957489" />
    <path
       d="m 475.29828,262.27529 c 0,0 -41.50421,-30.10955 -59.72453,-47.60607 -18.2203,-17.49651 -49.59734,-57.37301 -49.59734,-57.37301 L 188.95368,320.72654 c -27.75663,31.07107 -22.02508,83.4944 12.83078,116.96562 34.85588,33.47123 87.46837,37.07423 117.38803,8.08028 z M 366.87871,150.86158 c 0,0 32.79452,42.87784 52.31785,61.13909 19.52332,18.26125 63.49573,49.80965 63.49573,49.80965 l -157.36664,189.58809 -0.14877,0.14386 C 292.52953,483.37813 234.94135,479.48792 196.81054,442.87185 158.6811,406.2571 152.45964,348.87248 182.94601,314.9615 l 0.13842,-0.15381 0.15573,-0.13454 183.63855,-163.81157"
       fill="#b6a573"
       id="path10"
       sodipodi:nodetypes="czccsccczcccssccc"
       style="stroke-width:0.957489" />
    <path
       d="m 7.572577,704.20536 v 0 c 2.919274,2.80331 7.499013,2.90011 10.536218,0.22801 L 192.32079,551.00786 c 54.7117,11.45307 113.89219,-4.69509 155.44107,-47.96279 L 519.04935,301.37854 c 12.20524,-15.92419 10.4789,-38.45643 -3.9897,-52.35027 l -24.01651,-23.06245 c 14.46861,13.89384 16.19494,36.42608 3.98971,52.35027 L 323.74536,479.98263 c -33.005,34.37035 -77.13641,51.61939 -121.32689,51.51742 -11.27698,-0.0234 -22.11427,4.37379 -30.46064,11.95676 l -1.53338,1.39221 L 7.726772,692.83363 c -3.331972,3.03022 -3.403588,8.25142 -0.154195,11.37173"
       fill="#df8885"
       id="path46"
       style="stroke-width:0.957489" />
    <g
       inkscape:groupmode="layer"
       id="layer1"
       inkscape:label="Layer 1">
      <g
         style="font-variation-settings:normal;clip-rule:evenodd;opacity:1;vector-effect:none;fill:url(#linearGradient3097);fill-opacity:1;fill-rule:evenodd;stroke:url(#linearGradient3093);stroke-width:0.59142;stroke-linecap:butt;stroke-linejoin:miter;stroke-miterlimit:4;stroke-dasharray:none;stroke-dashoffset:0;stroke-opacity:1;image-rendering:optimizeQuality;shape-rendering:geometricPrecision;text-rendering:geometricPrecision;stop-color:#000000;stop-opacity:1"
         id="g3022"
         transform="matrix(-3.014002,2.2804869,-2.2804869,-3.014002,5464.9695,-392.70261)">
        <path
           class="fil5 str4"
           d="m 1345.8375,644.85723 c 0.8896,0.0426 1.8708,0.0789 2.742,0.1583 0.6186,0.0563 0.8732,0.925 1.4357,1.1882 0.4093,0.1915 0.9305,-0.0499 1.3509,0.1159 0.4082,0.161 0.7725,0.4658 1.0277,0.8226 0.1723,0.2408 -0.041,0.6756 0.1828,0.8694 0.6366,0.5515 1.444,0.8788 2.2181,1.2105 l 1.9194,0.8226 c 1.0359,-0.1218 2.1829,-0.4741 3.1767,-0.1583 0.8525,0.2708 0.8941,1.6404 1.7834,1.7344 1.8589,0.1964 3.9086,1.057 5.9165,0.8917 0.7542,-0.0621 1.0716,1.1015 1.7366,1.4624 0.155,0.0841 0.2949,-0.353 0.4526,-0.2742 0.7804,0.3903 1.2941,1.2359 2.1066,1.5538 0.4356,0.1704 0.9425,-0.3172 1.3911,-0.185 0.3371,0.0993 0.3834,0.6244 0.6888,0.7981 0.2184,0.1242 0.541,0.1561 0.7535,0.0223 0.2294,-0.1444 0.1535,-0.5579 0.3656,-0.7268 0.2789,-0.2222 0.6489,-0.3656 1.0054,-0.3656 0.1951,0 0.2412,0.4248 0.3879,0.2965 0.2612,-0.2287 0,-0.998 0.3433,-0.9363 0.7408,0.1338 1.6681,-0.0315 2.3764,0 0.3956,0.0175 -0.2037,0.8487 0,1.1882 0.1445,0.2408 0.624,-0.0157 0.8226,0.1828 0.1986,0.1985 -0.052,0.6687 0.1828,0.8226 0.299,0.1959 0.7717,-0.1932 1.0723,0 0.2378,0.1529 -0.052,0.7098 0.2073,0.8226 0.3312,0.1441 0.7227,-0.4335 1.0478,-0.2764 0.3202,0.1547 0.1093,0.8008 0.4146,0.9831 0.4203,0.2511 1.0437,-0.1154 1.4624,0.1382 0.2452,0.1485 -0.1048,0.7365 0.1605,0.8449 0.6408,0.2619 1.542,-0.3717 2.0755,0.0691 0.712,0.5883 1.7879,0.7681 2.8579,1.0277 0.4313,0.1046 0.1515,0.8841 0.1159,1.3264 -0.019,0.2313 -0.3996,0.4448 -0.2742,0.6398 0.2288,0.356 0.3975,0.5166 0.8204,0.5016 0.5445,-0.0194 1.2735,-0.8761 1.7388,-0.593 0.6328,0.3852 1.5417,1.034 2.6506,1.5538 0.5799,0.2718 0.6328,1.125 0.8226,1.7366 0.09,0.291 -0.1596,0.6548 0,0.914 0.1364,0.2217 0.4159,0.5339 0.593,0.3433 0.3672,-0.3955 0.1634,-1.299 0.5952,-1.6229 0.3688,-0.2765 0.9668,-0.0388 1.371,0.1828 0.5859,0.3212 0.8258,1.1684 1.4624,1.371 0.2902,0.0923 0.2518,-0.6614 0.5484,-0.7312 0.3471,-0.0817 0.7095,0.1668 1.0054,0.3656 0.2549,0.1712 0.2848,0.6829 0.5908,0.7067 0.3496,0.0272 0.5425,-0.7201 0.8694,-0.593 0.8214,0.3195 1.1945,1.3877 2.013,1.7143 0.8508,0.3394 1.8431,0.007 2.742,0.1828 0.3747,0.073 0.6288,0.4183 1.0054,0.4793 0.7818,0.1267 1.4939,-0.2705 2.2382,0 0.3976,0.1445 0.4789,0.8667 0.778,1.1659 0.5084,0.5084 1.0691,1.0127 1.7366,1.2796 0.4525,0.181 1.2706,-0.4478 1.4624,0 l 0.4793,1.1191 c 2.4984,-1.7712 5.0468,-3.0385 7.5639,-3.0385 h 5.3926 l 1.1882,-6.1238 c 0.4785,-2.4663 3.314,-4.2175 5.8496,-4.9601 v -0.7067 c 1.1701,-0.9322 2.4732,-0.8724 3.199,-1.0968 0.8195,-0.2535 1.7156,-0.0927 2.2828,0.5506 0.6692,0.7589 0.1345,1.3866 -0.6844,1.4825 -0.4464,0.0522 -0.7859,-0.4374 -1.2328,-0.3879 -0.5208,0.0576 -0.6752,0.2709 -1.1659,0.4548 -0.5165,0.1936 -1.0649,0.252 -1.5761,0.4592 -2.4166,0.9794 -4.8106,1.8166 -5.484,5.027 l -3.9302,18.737 c 0.4645,-0.0312 0.9426,0.0223 1.3933,-0.0936 0.6286,-0.1616 1.168,-0.85 1.8057,-0.729 0.5519,0.1047 0.8538,0.7732 1.0968,1.2796 0.145,0.3021 0.094,0.6837 0,1.0054 -0.1259,0.4318 -0.8712,0.8026 -0.6398,1.1882 0.3174,0.529 1.3118,0.1927 1.7366,0.6398 0.2727,0.2871 -0.302,0.6206 -0.1382,0.9809 0.1695,0.3731 0.6556,0.9272 1.0522,1.0299 0.5047,0.1308 0.4328,-0.6156 0.8628,-0.321 0.3026,0.2074 0,0.4642 0.2356,0.8203 0.1446,0.2223 0.3583,-0.0171 0.589,0.2198 0.3843,0.3947 0.8162,1.2534 1.0546,1.4745 0.38,0.3526 1.1389,-0.4026 1.5538,-0.0914 0.3967,0.2975 0.1503,0.8245 0.5506,1.1169 0.5705,0.4168 1.2147,0.3955 1.8258,0.4124 0.3104,0.008 -0.1214,-0.6444 0.1828,-0.7067 1.1058,-0.2267 2.3111,-0.453 3.2436,0.1828 0.7264,0.4952 0.7997,1.5422 0.778,2.421 -0.011,0.439 -1.0516,0.5891 -0.7312,0.8895 0.5374,0.5039 1.6249,0.1514 2.1936,0.6197 0.6331,0.5214 0.6159,1.5215 1.0522,2.2159 0.2532,0.4028 0.4849,1.0281 0.9586,0.9831 0.4548,-0.0433 0.4493,-0.8334 0.8226,-1.0968 0.199,-0.1405 0.3636,-0.1143 0.5239,0.0691 0.1617,0.1848 -0.1212,0.7253 0.1159,0.6621 0.5887,-0.1568 0.8485,-0.9626 1.3933,-1.235 0.218,-0.1089 0.6653,-0.0645 0.8003,0.1382 0.2027,0.3041 0.1484,0.7628 0,1.0968 -0.1237,0.2783 -0.7812,0.248 -0.7312,0.5484 0.081,0.4892 0.8855,0.4632 0.8672,0.9586 -0.022,0.5848 -0.8783,0.9297 -0.9586,1.5092 -0.093,0.6679 0.2313,1.2448 0.6398,1.7812 0.1661,0.218 0.7326,0.2589 0.8226,0 0.2304,-0.6623 -0.4744,-1.3765 -0.091,-1.964 0.2662,-0.4082 1.0208,-0.2061 1.4624,0 0.1952,0.0911 0.021,0.4564 -0.091,0.6398 -0.1471,0.2391 -0.7137,0.2774 -0.6398,0.5484 0.1652,0.606 0.8863,0.9119 1.1882,1.4624 0.2273,0.4147 0.1548,0.8381 0.1391,1.3106 -0.016,0.4814 -0.6122,1.1378 -0.2305,1.4314 1.1882,0.9139 2.2279,2.0639 3.5646,2.742 0.8263,0.4191 1.8105,-0.005 2.5695,0.526 0.626,0.4382 0.6223,1.3484 1.1555,1.8952 0.7148,0.7332 1.7902,1.0713 2.5471,1.7608 0.6494,0.5917 0.9516,1.342 1.6694,1.8486 0.4479,0.3161 1.0201,0.5857 1.4727,0.276 l 1.7366,-1.1882 0.7397,0.7191 -0.1913,0.4691 -0.6398,-0.2742 -1.6452,1.1295 1.1882,1.0641 -0.012,1.6107 -0.6295,1.5986 1.2814,4.2855 3.1972,1.4521 -0.3795,0.319 -0.9552,0.0242 -0.2415,0.5018 0.8357,0.6253 0.3331,-0.45 0.5006,0.2696 -1.0054,1.0968 -2.285,-2.0108 -0.1828,0.1828 0.7312,1.1882 -0.6398,0.3656 -1.4297,-1.8849 -1.3123,-0.0345 -2.285,-1.7366 -1.1882,1.7366 -0.9709,-0.1156 -0.034,0.6967 1.2796,0.2415 -0.3656,1.6452 1.2796,0.7312 v 0.8226 l -0.7088,0.8123 -0.1138,1.9297 -0.8226,0.457 0.3535,1.8056 -0.6277,0.0224 -0.5466,-2.0108 -4.5718,0.5484 -0.5605,0.3656 3.8509,6.3066 1.1882,0.6398 0.7312,0.3656 -1.8298,2.1004 -2.1918,0.6416 -1.828,0.914 -0.091,0.7312 -1.2796,0.5484 -0.457,-1.0968 0.1828,-0.6398 -3.199,-6.0324 -0.7312,-0.0914 -0.457,-0.914 0.091,-0.6398 -1.1882,-2.4678 -0.6734,0.0623 -0.192,-0.8619 -2.1508,-1.0284 c -0.6398,0.2646 -1.2795,0.4715 -1.9194,0.2742 -0.4282,-0.457 -0.5805,-0.914 -0.457,-1.371 l -2.3764,-1.0968 -1.4624,0.5484 -0.6398,-1.4624 -2.285,-1.0968 -1.371,0.457 v -1.2796 l -3.3697,-1.4624 0.079,-6.5481 -0.914,-0.6846 0.024,-0.8571 1.1743,-1.0502 0.3656,-3.5301 -1.1071,-0.4915 c -0.6474,-0.6201 -0.9342,-1.4076 -1.0968,-2.1022 -0.05,-0.2133 -0.4588,0.2663 -0.6414,0.1451 -0.2039,-0.1353 0.032,-0.6386 -0.2036,-0.7056 -0.3814,-0.1085 -0.7506,0.3565 -1.1456,0.3215 -0.3335,-0.0295 -0.5393,-0.4565 -0.8713,-0.5003 -0.2662,-0.0351 -0.5033,0.3833 -0.7535,0.2857 l -1.7427,-0.6795 -4.5131,5.4289 1.0054,0.8226 -0.5448,0.8759 c -0.8559,0.2389 -1.2761,-0.2507 -1.9127,-0.7845 -0.3714,-0.3115 -1.1534,0.82 -1.44,0.2379 -0.1918,-0.3896 -0.02,-1.2048 -0.5811,-1.7142 -0.2894,-0.2629 0.4952,-0.6881 0.8831,-0.7397 0.393,-0.0522 0.6772,0.4504 1.0726,0.4794 l 1.2433,0.0914 2.9127,-3.6905 0.034,-0.8898 -2.0108,-1.3831 c -0.7691,-0.3018 -1.6831,-0.3642 -2.3074,-0.9055 -0.2966,-0.2571 -0.2321,-0.8078 -0.091,-1.1743 0.2757,-0.7178 0.657,-1.4685 1.2796,-1.9194 0.3701,-0.2679 0.9765,-0.2306 1.371,0 l 1.7366,1.0157 0.6501,0.0569 0.7312,-0.9122 0.069,-0.9019 -0.6725,-1.0744 v -1.2917 l -1.2124,-1.3347 -0.845,0.3051 -1.4624,-0.5242 c -0.5484,-0.5179 -0.9914,-1.1776 -1.6452,-1.5538 -0.1766,-0.1016 -0.3384,0.3631 -0.5324,0.3007 -0.3555,-0.1144 -0.4966,-0.5942 -0.8394,-0.7424 -0.2794,-0.1208 -0.6877,0.189 -0.9132,-0.0153 -0.9748,-0.8835 -2.0825,-1.6399 -2.9248,-2.6506 -0.1922,-0.2305 0.022,-0.5773 -0.138,-0.8311 -0.2405,-0.381 -0.5411,-0.7365 -0.9588,-0.9055 -0.3106,-0.1256 -0.6983,0.1343 -1.0054,0 -0.24,-0.1049 -0.2343,-0.5016 -0.457,-0.6398 -0.6834,-0.4241 -1.4079,-0.8333 -2.1936,-1.0054 -0.339,-0.0742 -0.6501,0.3449 -0.9951,0.3069 -0.4949,-0.0545 -0.8847,-0.5312 -1.3813,-0.569 -0.1974,-0.015 -0.2092,0.444 -0.4068,0.4328 -0.5011,-0.0285 -0.9068,-0.4976 -1.4073,-0.5363 -0.2989,-0.0231 -0.6547,0.1156 -0.8226,0.3638 -0.2382,0.352 -0.026,0.8974 -0.2675,1.2469 l -6.4083,9.2798 c 0.088,0.5133 0.2657,1.0192 0.2639,1.5399 0,0.4959 0.043,1.0815 -0.2742,1.4624 -0.2372,0.2847 -0.8348,-0.0792 -1.0968,0.1828 -0.2154,0.2154 -0.25,0.7402 0,0.914 0.5944,0.4135 1.4012,0.3333 2.0332,0.6864 0.4528,0.253 0.8199,0.5104 0.9364,1.0157 0.095,0.4134 -0.068,0.8807 -0.319,1.2227 -0.1138,0.1552 -0.5952,0.0135 -0.7554,-0.0932 -0.3801,-0.2534 -0.3217,-0.7337 -0.7191,-0.9588 -0.5721,-0.324 -1.3992,-0.0864 -1.8159,-0.595 l -0.8226,-1.0036 -1.828,4.6614 -3.199,-1.0054 2.6506,-6.2152 -2.1089,1.2881 c -0.6693,0.4087 -1.4961,-0.2371 -0.5605,-0.9225 l 2.121,-1.5538 1.0502,-1.5762 0.1138,-2.397 -0.8898,-4.2528 -0.914,-4.113 -1.2796,-2.6954 -0.914,-5.3478 -0.4715,-0.1738 c 0.2741,-0.8716 -0.3258,-1.9387 -0.6271,-2.7183 l -1.9176,-3.3231 c -0.6055,-1.7306 -1.4375,-3.4246 -2.4575,-4.9459 -1.0625,-1.5845 -2.2126,-3.1516 -3.3921,-4.6511 -0.6177,-0.7853 -1.1351,-1.6263 -1.897,-2.2729 -0.3054,-0.2591 -0.7646,-0.0998 -1.1192,-0.2863 -0.2694,-0.1418 -0.4567,-0.4407 -0.5484,-0.7312 -0.1009,-0.3195 0.2181,-0.7509 0,-1.0054 -0.2452,-0.2861 -0.8592,0.0182 -1.0968,-0.2742 -0.2504,-0.3082 0.1256,-0.8555 -0.091,-1.1882 -0.2863,-0.4389 -0.7605,-0.8419 -1.2796,-0.914 -1.7501,-0.243 -3.5685,0.1049 -5.3012,-0.2415 -0.5507,-0.1101 -0.6523,-0.6947 -1.0968,-1.0381 -0.2515,-0.1944 -0.7528,-10e-5 -0.914,-0.2742 -0.2162,-0.3674 0.035,-0.7864 -0.138,-1.1761 -0.2187,-0.4924 -0.507,-0.8946 -0.9588,-1.1882 -0.2042,-0.1327 -0.51,-0.002 -0.7312,-0.1035 -0.2159,-0.0995 -0.6008,-0.4756 -0.8365,-0.4449 -1.2905,0.1681 -3.2265,1.4471 -4.0924,0.4758 -1.0684,-1.1985 -1.9389,-2.6089 -3.2057,-3.5955 -0.4353,-0.339 -1.101,-0.2738 -1.6452,-0.1828 -0.4533,0.0758 -0.7937,0.8539 -1.2106,0.6604 -0.6917,-0.3212 -0.8041,-1.3145 -1.3486,-1.8486 -0.321,-0.3149 -0.7509,-0.5343 -1.1882,-0.6398 -0.4737,-0.1143 -1.0607,-0.2761 -1.4624,0 -0.2761,0.1899 0.1073,0.6416 -0.1035,0.9019 -0.205,0.253 -0.651,0.5362 -0.8573,0.2841 -0.4844,-0.5921 -0.929,-1.4664 -0.6844,-2.1914 0.3099,-0.9187 1.6429,-1.1996 1.9642,-2.1143 0.1819,-0.518 -0.3681,-0.93 -0.8795,-1.1295 -0.8801,-0.3432 -1.3994,-0.0287 -2.3504,-0.2294 -0.304,-0.0642 -0.4159,-0.9065 -0.1053,-0.8917 z"
           id="path520"
           style="font-variation-settings:normal;vector-effect:none;fill:url(#linearGradient3099);fill-opacity:1;stroke:none;stroke-width:0.59142;stroke-linecap:butt;stroke-linejoin:miter;stroke-miterlimit:4;stroke-dasharray:none;stroke-dashoffset:0;stroke-opacity:1;stop-color:#000000" />
        <g
           id="Numbers"
           style="font-variation-settings:normal;vector-effect:none;fill:url(#linearGradient3122);fill-opacity:1;stroke:url(#linearGradient3124);stroke-width:0.59142;stroke-linecap:butt;stroke-linejoin:miter;stroke-miterlimit:4;stroke-dasharray:none;stroke-dashoffset:0;stroke-opacity:1;stop-color:#000000;stop-opacity:1">
  <metadata
   id="CorelCorpID_8Corel-Layer"
   style="fill:url(#linearGradient3097);fill-opacity:1;stroke:url(#linearGradient3093)" />

  
  
  
  
  
  
  
  
  
  
  
  
  
  
  
  
  
  
  
  
  
  
  
  
  
  
  
 </g>
      </g>
    </g>
    <path
       d="m -78.150391,743.12303 -16.127141,-15.4865 13.014662,-20.60324 24.09544,23.13826 z"
       fill="#a3333b"
       id="path2-3"
       style="stroke-width:0.358181"
       sodipodi:nodetypes="ccccc" />
    <g
       id="g3193"
       transform="matrix(0.24393692,-0.24492979,0.24492979,0.24393692,167.71869,353.66457)">
      <path
         d="m 150,180 11,41 41,-11 -30,30 30,30 -41,-11 -11,41 -11,-41 -41,11 30,-30 -30,-30 41,11 z m 140,0 11,41 41,-11 -30,30 30,30 -41,-11 -11,41 -11,-41 -41,11 30,-30 -30,-30 41,11 z m 140,0 11,41 41,-11 -30,30 30,30 -41,-11 -11,41 -11,-41 -41,11 30,-30 -30,-30 41,11 z m 140,0 11,41 41,-11 -30,30 30,30 -41,-11 -11,41 -11,-41 -41,11 30,-30 -30,-30 41,11 z"
         fill="#ff0000"
         id="path3178" />
      <path
         d="m 0,80 h 720 v 80 H 0 v 160 h 720 v 80 H 0 Z"
         fill="#b3ddf2"
         id="path3180" />
    </g>
  </g>
</svg>
